<svg xmlns="http://www.w3.org/2000/svg" xmlns:xlink="http://www.w3.org/1999/xlink" width="500" zoomAndPan="magnify" viewBox="0 0 375 374.999991" height="500" preserveAspectRatio="xMidYMid meet" version="1.0"><defs><clipPath id="id1"><path d="M 54 52.519531 L 313 52.519531 L 313 310.519531 L 54 310.519531 Z M 54 52.519531 " clip-rule="nonzero"/></clipPath><clipPath id="id2"><path d="M 58 256 L 160 256 L 160 310.519531 L 58 310.519531 Z M 58 256 " clip-rule="nonzero"/></clipPath><clipPath id="id3"><path d="M 237 148 L 337.527344 148 L 337.527344 202 L 237 202 Z M 237 148 " clip-rule="nonzero"/></clipPath><clipPath id="id4"><path d="M 29.277344 61 L 107 61 L 107 103 L 29.277344 103 Z M 29.277344 61 " clip-rule="nonzero"/></clipPath></defs><path fill="#70cfc7" d="M 310.632812 181.769531 C 310.632812 252.035156 253.699219 309.039062 183.4375 309.039062 C 113.203125 309.039062 56.269531 252.035156 56.269531 181.769531 C 56.269531 111.496094 113.203125 54.515625 183.4375 54.515625 C 253.699219 54.515625 310.632812 111.496094 310.632812 181.769531 " fill-opacity="1" fill-rule="nonzero"/><g clip-path="url(#id1)"><path fill="#180d0c" d="M 310.632812 181.769531 L 308.566406 181.769531 C 308.566406 216.335938 294.566406 247.625 271.917969 270.289062 C 249.269531 292.953125 218.003906 306.972656 183.4375 306.972656 C 148.886719 306.972656 117.621094 292.953125 94.980469 270.289062 C 72.339844 247.625 58.34375 216.335938 58.339844 181.769531 C 58.34375 147.195312 72.339844 115.914062 94.980469 93.253906 C 117.621094 70.597656 148.886719 56.585938 183.4375 56.585938 C 218.003906 56.585938 249.269531 70.597656 271.917969 93.253906 C 294.566406 115.914062 308.566406 147.195312 308.566406 181.769531 L 312.703125 181.769531 C 312.699219 110.355469 254.839844 52.445312 183.4375 52.445312 C 112.0625 52.449219 54.207031 110.355469 54.203125 181.769531 C 54.207031 253.179688 112.0625 311.109375 183.4375 311.109375 C 254.839844 311.109375 312.699219 253.179688 312.703125 181.769531 L 310.632812 181.769531 " fill-opacity="1" fill-rule="nonzero"/></g><path fill="#5daaa4" d="M 183.4375 306.972656 C 148.886719 306.972656 117.621094 292.953125 94.980469 270.289062 C 72.339844 247.625 58.34375 216.335938 58.339844 181.769531 C 58.34375 147.195312 72.339844 115.914062 94.980469 93.253906 C 99.378906 88.851562 104.105469 84.773438 109.117188 81.066406 C 86.519531 104.035156 72.578125 135.550781 72.578125 170.320312 C 72.578125 240.585938 129.511719 297.589844 199.742188 297.589844 C 204.445312 297.589844 209.085938 297.335938 213.660156 296.839844 C 215.695312 298.484375 217.226562 299.695312 219.601562 301.554688 C 219.632812 301.578125 219.667969 301.609375 219.703125 301.632812 C 208.222656 305.105469 196.050781 306.972656 183.4375 306.972656 M 226.105469 299.503906 C 226.136719 299.394531 226.164062 299.28125 226.191406 299.167969 C 226.546875 297.523438 226.871094 296.027344 227.179688 294.621094 C 236.058594 292.664062 244.589844 289.78125 252.664062 286.078125 C 244.445312 291.550781 235.535156 296.078125 226.105469 299.503906 " fill-opacity="1" fill-rule="nonzero"/><path fill="#160b0a" d="M 183.4375 308.335938 C 113.203125 308.335938 56.269531 251.332031 56.269531 181.066406 C 56.269531 133.117188 82.785156 91.363281 121.941406 69.667969 C 117.414062 73.179688 113.128906 76.988281 109.117188 81.066406 C 104.105469 84.773438 99.378906 88.851562 94.980469 93.253906 C 72.339844 115.914062 58.34375 147.195312 58.339844 181.769531 C 58.34375 216.335938 72.339844 247.625 94.980469 270.289062 C 117.621094 292.953125 148.886719 306.972656 183.4375 306.972656 C 196.050781 306.972656 208.222656 305.105469 219.703125 301.632812 C 220.339844 302.101562 221.09375 302.371094 221.863281 302.425781 C 209.742188 306.265625 196.832031 308.335938 183.4375 308.335938 M 224.835938 301.441406 C 225.425781 300.933594 225.871094 300.261719 226.105469 299.503906 C 235.535156 296.078125 244.445312 291.550781 252.664062 286.078125 C 255.585938 284.734375 258.457031 283.289062 261.253906 281.734375 C 250.382812 290.164062 238.105469 296.871094 224.835938 301.441406 " fill-opacity="1" fill-rule="nonzero"/><path fill="#76ce95" d="M 222.148438 300.363281 C 221.695312 300.363281 221.242188 300.214844 220.875 299.921875 C 217.757812 297.484375 216.101562 296.164062 212.816406 293.488281 C 212.359375 293.121094 212.085938 292.570312 212.058594 291.984375 C 211.234375 275.089844 210.875 265.609375 210.355469 246.898438 C 200.863281 241.933594 194.824219 235.589844 192.402344 228.027344 C 189.847656 220.058594 192.074219 212.796875 193.65625 209.128906 C 187.339844 205.566406 180.367188 201 179.289062 197.730469 C 178.105469 196.273438 169.320312 193.949219 160.34375 192.734375 C 159.804688 192.660156 159.320312 192.382812 158.988281 191.953125 C 153.4375 184.800781 150.121094 180.425781 146.027344 174.933594 L 146.109375 184.328125 C 146.117188 185.328125 145.40625 186.195312 144.417969 186.378906 C 144.289062 186.402344 144.164062 186.414062 144.039062 186.414062 C 143.191406 186.414062 142.410156 185.890625 142.105469 185.074219 C 137.902344 173.914062 132.910156 161.546875 131.726562 159.914062 C 130.796875 159.078125 129.355469 157.0625 134.894531 137.710938 C 135.15625 136.800781 135.984375 136.210938 136.882812 136.210938 C 137.070312 136.210938 137.261719 136.234375 137.453125 136.292969 C 137.546875 136.316406 137.75 136.371094 137.992188 136.410156 C 137.011719 132.265625 133.53125 120.765625 130.078125 109.894531 C 117.609375 116.347656 110.847656 119.992188 99.085938 126.339844 C 98.777344 126.503906 98.441406 126.585938 98.109375 126.585938 C 97.441406 126.585938 96.796875 126.265625 96.398438 125.679688 C 95.804688 124.800781 95.964844 123.617188 96.773438 122.933594 C 101.574219 118.878906 104.25 116.585938 108.941406 112.523438 C 108.492188 111.59375 108.171875 110.863281 107.730469 109.832031 C 107.34375 108.941406 107.636719 107.894531 108.433594 107.332031 C 108.433594 107.332031 115.289062 102.476562 116.441406 101.660156 C 115.925781 100.941406 115.925781 99.964844 116.457031 99.238281 L 116.902344 98.617188 C 118 97.117188 118.683594 96.171875 119.925781 94.507812 C 120.195312 94.148438 120.570312 93.882812 121.003906 93.753906 C 122.703125 93.253906 123.742188 92.976562 125.242188 92.605469 C 126.390625 90.398438 127.132812 89.023438 128.542969 86.492188 C 128.707031 86.199219 128.945312 85.949219 129.226562 85.761719 C 130.679688 84.828125 131.425781 84.351562 132.847656 83.441406 C 134.9375 81.871094 142.460938 76.230469 142.460938 76.230469 C 142.820312 75.960938 143.257812 75.820312 143.699219 75.820312 L 143.925781 75.832031 C 148.253906 76.304688 150.742188 76.785156 156.035156 78.183594 C 156.640625 78.339844 157.144531 78.769531 157.398438 79.34375 C 157.398438 79.34375 158.0625 80.839844 158.253906 81.261719 C 162.144531 79.777344 164.632812 78.894531 169.199219 77.363281 C 169.414062 77.289062 169.636719 77.253906 169.859375 77.253906 C 170.179688 77.253906 170.5 77.328125 170.792969 77.476562 C 174.035156 79.121094 175.773438 80.066406 179.230469 81.953125 L 179.714844 82.242188 C 182.121094 83.664062 183.546875 84.507812 186.117188 86.078125 C 187.84375 86.277344 194.234375 86.988281 198.179688 86.988281 C 199.097656 86.988281 199.671875 86.949219 200.019531 86.910156 C 201.199219 84.394531 204.414062 78.574219 205.125 77.285156 C 205.492188 76.625 206.191406 76.222656 206.933594 76.222656 C 207.050781 76.222656 207.164062 76.230469 207.28125 76.25 C 208.152344 76.402344 208.828125 77.082031 208.976562 77.949219 C 209.691406 82.183594 210.128906 84.769531 210.804688 88.390625 C 211.117188 88.191406 213.195312 86.816406 214.128906 86.199219 C 214.472656 85.96875 214.871094 85.851562 215.277344 85.851562 C 215.464844 85.851562 215.65625 85.875 215.839844 85.929688 C 216.421875 86.09375 216.902344 86.507812 217.152344 87.058594 L 217.6875 88.226562 C 218.058594 89.039062 218.367188 89.714844 218.851562 90.746094 C 219.304688 91.703125 218.960938 92.84375 218.058594 93.394531 C 208.523438 99.230469 203.578125 102.394531 194.398438 108.351562 C 194.242188 110.539062 194.15625 112.023438 194.035156 114.253906 C 197.640625 116.585938 199.820312 118 203.910156 120.683594 C 204.480469 121.058594 204.832031 121.691406 204.84375 122.378906 C 204.886719 124.8125 204.925781 126.40625 204.984375 128.34375 C 205.523438 128.144531 206.0625 127.945312 206.65625 127.730469 L 206.601562 126.570312 C 206.53125 125.246094 206.46875 124.070312 206.398438 122.355469 C 206.367188 121.5625 206.789062 120.816406 207.488281 120.441406 C 209.03125 119.617188 210.097656 119.058594 211.273438 118.441406 L 212.042969 118.039062 C 211.097656 115.65625 210.226562 112.273438 211.738281 110.195312 C 211.867188 110.015625 211.769531 109.152344 211.722656 108.738281 C 211.601562 107.652344 211.429688 106.164062 212.453125 104.996094 C 213.117188 104.238281 214.097656 103.847656 215.359375 103.828125 L 215.464844 103.828125 C 219.046875 103.828125 226.550781 106.738281 227.394531 107.070312 C 228.273438 107.410156 228.808594 108.308594 228.691406 109.246094 C 228.441406 111.28125 228.277344 112.589844 228.066406 114.230469 C 228.707031 114.285156 229.308594 114.34375 230.019531 114.398438 C 230.902344 113.21875 231.53125 112.386719 232.550781 111.011719 C 232.949219 110.484375 233.5625 110.175781 234.210938 110.175781 L 234.429688 110.1875 C 235.15625 110.265625 235.792969 110.722656 236.09375 111.390625 C 237.96875 115.503906 239.335938 118.484375 240.789062 121.644531 C 241.917969 124.121094 243.101562 126.703125 244.617188 130.015625 C 244.664062 130.117188 244.703125 130.222656 244.730469 130.328125 L 245.828125 134.316406 C 246.289062 135.992188 246.722656 137.566406 247.332031 139.800781 C 247.535156 140.53125 247.316406 141.3125 246.769531 141.835938 C 246.378906 142.214844 245.859375 142.414062 245.335938 142.414062 C 245.125 142.414062 244.910156 142.378906 244.707031 142.316406 C 241.996094 141.445312 240.648438 141.015625 237.902344 140.15625 C 236.992188 139.875 236.394531 139 236.457031 138.046875 C 236.457031 138.046875 236.636719 135.332031 236.703125 134.355469 C 232.75 134.058594 230.03125 133.871094 225.765625 133.628906 C 225.707031 133.804688 225.644531 133.972656 225.585938 134.144531 C 225.847656 134.207031 228.296875 134.824219 228.296875 134.824219 C 228.871094 134.976562 229.355469 135.363281 229.628906 135.894531 C 230.464844 137.53125 232.605469 141.695312 232.605469 141.695312 C 232.902344 142.273438 232.90625 142.960938 232.625 143.546875 C 232.335938 144.132812 231.796875 144.550781 231.160156 144.671875 C 225.609375 145.746094 222.507812 146.351562 216.757812 147.519531 C 212.042969 150.789062 207.796875 154.714844 207.574219 156.023438 C 207.097656 159.195312 207.066406 162.464844 207.066406 162.5 C 207.0625 163.347656 206.539062 164.109375 205.746094 164.414062 C 203.074219 165.453125 201.3125 166.148438 199.226562 166.972656 L 197.277344 167.738281 C 197.269531 170.933594 197.273438 172.964844 197.28125 176.53125 C 197.285156 177.140625 197.015625 177.726562 196.546875 178.117188 C 196.171875 178.433594 195.699219 178.605469 195.214844 178.605469 C 195.09375 178.605469 194.96875 178.59375 194.855469 178.570312 C 194.355469 178.488281 192.921875 178.214844 192.445312 178.128906 C 191.722656 178 191.121094 177.496094 190.867188 176.804688 C 189.933594 174.253906 189.445312 172.90625 188.585938 170.46875 C 187.28125 169.277344 185.75 168.175781 184.992188 167.882812 C 183.839844 168.558594 182.136719 168.71875 180.0625 168.90625 C 178.207031 169.078125 175.40625 169.335938 174.589844 170.066406 C 173.011719 171.453125 167.3125 179.992188 168.527344 184.230469 C 168.757812 185.042969 169.367188 186.167969 171.949219 186.601562 C 173.421875 186.84375 174.746094 186.964844 175.890625 186.964844 C 178.519531 186.964844 180.203125 186.292969 180.285156 185.214844 C 180.359375 184.132812 181.261719 183.296875 182.34375 183.296875 L 182.402344 183.296875 C 183.503906 183.324219 184.390625 184.21875 184.410156 185.324219 C 184.460938 187.722656 184.492188 189.164062 184.550781 191.128906 C 185.808594 191.25 186.855469 191.351562 188.46875 191.523438 C 189.546875 191.636719 190.355469 192.566406 190.316406 193.648438 C 190.257812 195.417969 190.222656 196.476562 190.1875 197.988281 C 193.078125 200.140625 194.90625 201.488281 197.726562 203.550781 C 197.726562 203.550781 204.75 198.9375 207.472656 197.144531 C 207.816406 196.921875 208.214844 196.800781 208.609375 196.800781 C 208.90625 196.800781 209.203125 196.867188 209.480469 196.996094 C 210.128906 197.296875 210.578125 197.914062 210.664062 198.625 L 210.882812 200.375 C 211.703125 200.003906 212.519531 199.628906 213.628906 199.117188 C 213.90625 198.992188 214.203125 198.929688 214.496094 198.929688 C 214.777344 198.929688 215.0625 198.984375 215.328125 199.101562 C 223.273438 202.597656 227.613281 204.421875 234.800781 207.445312 L 237.277344 208.484375 C 237.511719 208.582031 237.722656 208.722656 237.90625 208.894531 C 240.804688 211.664062 242.300781 213.097656 245.019531 215.683594 C 255.285156 218.902344 260.136719 220.320312 269.320312 222.796875 C 269.972656 222.976562 270.492188 223.457031 270.722656 224.085938 C 270.957031 224.722656 270.863281 225.425781 270.480469 225.980469 C 268.214844 229.234375 266.84375 231.179688 264.929688 233.894531 L 263.652344 235.707031 C 262.738281 240.464844 262.242188 242.996094 261.234375 247.769531 C 261.113281 248.363281 260.734375 248.875 260.199219 249.160156 C 259.894531 249.332031 259.554688 249.410156 259.210938 249.410156 C 258.960938 249.410156 258.710938 249.367188 258.46875 249.273438 C 258.109375 249.136719 256.949219 248.777344 255.976562 248.777344 C 255.433594 248.777344 255.203125 248.890625 255.171875 248.921875 C 255.171875 248.921875 255.144531 248.957031 255.121094 249.074219 C 254.382812 252.546875 239.183594 269.777344 234.8125 269.777344 L 234.734375 269.773438 C 233.753906 270.164062 231.277344 273.140625 229.363281 276.210938 C 227.152344 285.289062 226.078125 289.886719 224.171875 298.730469 C 224.019531 299.429688 223.523438 300 222.855469 300.242188 C 222.625 300.324219 222.386719 300.363281 222.148438 300.363281 " fill-opacity="1" fill-rule="nonzero"/><path fill="#180d0c" d="M 143.699219 73.75 C 142.8125 73.75 141.9375 74.035156 141.21875 74.578125 C 139.476562 75.882812 138.125 76.898438 136.808594 77.882812 C 135.242188 79.054688 133.726562 80.191406 131.667969 81.738281 C 130.285156 82.621094 129.539062 83.101562 128.109375 84.023438 C 127.539062 84.390625 127.066406 84.890625 126.734375 85.488281 C 125.496094 87.707031 124.773438 89.042969 123.835938 90.824219 C 122.746094 91.105469 121.796875 91.367188 120.421875 91.769531 C 119.5625 92.027344 118.800781 92.550781 118.269531 93.269531 C 117.019531 94.945312 116.332031 95.894531 115.234375 97.402344 L 114.785156 98.019531 C 114.167969 98.859375 113.914062 99.871094 114.007812 100.847656 C 113.289062 101.359375 112.574219 101.863281 111.835938 102.386719 C 110.460938 103.359375 108.996094 104.398438 107.238281 105.640625 C 105.648438 106.769531 105.0625 108.859375 105.832031 110.652344 C 106.039062 111.136719 106.222656 111.5625 106.410156 111.980469 C 102.421875 115.425781 99.816406 117.652344 95.4375 121.351562 C 93.820312 122.722656 93.496094 125.09375 94.6875 126.84375 C 95.484375 128.011719 96.78125 128.65625 98.109375 128.65625 C 98.777344 128.65625 99.445312 128.492188 100.070312 128.15625 C 111.117188 122.199219 117.75 118.625 128.847656 112.859375 C 131.496094 121.273438 134.050781 129.707031 135.34375 134.429688 C 134.199219 134.890625 133.273438 135.859375 132.90625 137.140625 C 132.851562 137.335938 131.527344 141.976562 130.382812 146.878906 C 128.28125 155.878906 128.179688 159.191406 130.101562 161.207031 C 131.433594 163.398438 136.210938 175.285156 140.167969 185.800781 C 140.785156 187.4375 142.34375 188.484375 144.035156 188.484375 C 144.289062 188.484375 144.542969 188.460938 144.800781 188.414062 C 146.769531 188.042969 148.191406 186.316406 148.175781 184.308594 L 148.148438 181.210938 C 150.8125 184.746094 153.5625 188.335938 157.351562 193.21875 C 158.019531 194.074219 158.992188 194.636719 160.0625 194.78125 C 167.628906 195.8125 175.496094 197.726562 177.5625 199.011719 C 178.304688 200.671875 180.765625 204.027344 191.0625 210.027344 C 189.445312 214.402344 188.03125 221.167969 190.429688 228.65625 C 192.929688 236.464844 198.945312 243.015625 208.324219 248.15625 C 208.820312 266.09375 209.179688 275.539062 209.988281 292.085938 C 210.046875 293.257812 210.597656 294.351562 211.511719 295.09375 C 214.808594 297.777344 216.472656 299.105469 219.601562 301.554688 C 220.335938 302.132812 221.238281 302.433594 222.148438 302.433594 C 222.625 302.433594 223.101562 302.351562 223.554688 302.1875 C 224.898438 301.699219 225.890625 300.5625 226.191406 299.167969 C 228.066406 290.453125 229.140625 285.871094 231.292969 277.03125 C 232.6875 274.835938 234.449219 272.601562 235.382812 271.828125 C 236.894531 271.699219 239.683594 270.675781 247.6875 262.285156 C 252.460938 257.28125 255.460938 253.46875 256.644531 250.917969 C 257.089844 251 257.535156 251.132812 257.746094 251.214844 C 258.214844 251.386719 258.710938 251.476562 259.199219 251.476562 C 259.890625 251.476562 260.582031 251.304688 261.195312 250.964844 C 262.253906 250.382812 263.011719 249.375 263.261719 248.195312 C 264.234375 243.554688 264.734375 241.023438 265.597656 236.535156 L 266.621094 235.085938 C 268.542969 232.363281 269.910156 230.421875 272.175781 227.160156 C 272.945312 226.054688 273.125 224.644531 272.664062 223.378906 C 272.207031 222.113281 271.160156 221.152344 269.859375 220.800781 C 260.84375 218.367188 256.015625 216.957031 246.097656 213.855469 C 243.59375 211.472656 242.105469 210.046875 239.332031 207.398438 C 238.96875 207.050781 238.546875 206.773438 238.082031 206.574219 L 235.597656 205.53125 C 228.417969 202.515625 224.089844 200.699219 216.160156 197.210938 C 215.632812 196.976562 215.0625 196.859375 214.496094 196.859375 C 213.902344 196.859375 213.3125 196.984375 212.761719 197.238281 C 212.664062 197.289062 212.566406 197.332031 212.46875 197.375 C 212.085938 196.390625 211.332031 195.574219 210.347656 195.117188 C 209.792969 194.863281 209.203125 194.734375 208.609375 194.734375 C 207.816406 194.734375 207.023438 194.964844 206.335938 195.417969 C 203.617188 197.207031 201.746094 198.441406 199.71875 199.769531 L 197.789062 201.035156 C 195.851562 199.613281 194.308594 198.476562 192.285156 196.96875 C 192.308594 195.957031 192.335938 195.035156 192.382812 193.722656 C 192.457031 191.554688 190.847656 189.695312 188.691406 189.464844 C 187.871094 189.378906 187.195312 189.308594 186.566406 189.246094 C 186.535156 188.027344 186.511719 186.859375 186.480469 185.28125 C 186.4375 183.070312 184.664062 181.285156 182.453125 181.226562 L 182.34375 181.226562 C 180.347656 181.226562 178.65625 182.648438 178.285156 184.574219 C 177.9375 184.714844 177.183594 184.894531 175.890625 184.894531 C 174.859375 184.894531 173.644531 184.78125 172.28125 184.5625 C 171.238281 184.386719 170.640625 184.09375 170.515625 183.679688 C 169.644531 180.785156 174.171875 173.359375 175.898438 171.675781 C 176.636719 171.300781 178.980469 171.085938 180.25 170.96875 C 182.046875 170.804688 183.597656 170.660156 184.910156 170.191406 C 185.449219 170.554688 186.15625 171.09375 186.8125 171.660156 C 187.570312 173.808594 188.0625 175.15625 188.925781 177.515625 C 189.429688 178.898438 190.636719 179.910156 192.085938 180.167969 C 192.550781 180.25 192.898438 180.316406 193.242188 180.382812 C 193.613281 180.449219 193.984375 180.519531 194.488281 180.613281 C 194.730469 180.652344 194.976562 180.671875 195.214844 180.671875 C 196.179688 180.671875 197.125 180.332031 197.875 179.703125 C 198.8125 178.914062 199.351562 177.75 199.347656 176.523438 C 199.339844 173.511719 199.339844 171.59375 199.34375 169.152344 L 199.996094 168.890625 C 202.074219 168.070312 203.828125 167.378906 206.496094 166.34375 C 208.082031 165.730469 209.128906 164.207031 209.136719 162.511719 C 209.136719 162.480469 209.164062 159.515625 209.585938 156.570312 C 210.285156 155.277344 213.917969 152.058594 217.589844 149.460938 C 223.074219 148.347656 226.023438 147.769531 231.550781 146.703125 C 232.828125 146.457031 233.914062 145.621094 234.484375 144.453125 C 235.050781 143.28125 235.039062 141.910156 234.441406 140.75 L 233.523438 138.960938 C 233.019531 137.976562 232.589844 137.136719 232.054688 136.089844 C 232.855469 136.148438 233.660156 136.203125 234.503906 136.269531 C 234.484375 136.5625 234.460938 136.878906 234.4375 137.214844 L 234.394531 137.910156 C 234.269531 139.816406 235.464844 141.5625 237.285156 142.132812 C 240.023438 142.988281 241.371094 143.417969 244.074219 144.285156 C 244.492188 144.417969 244.917969 144.484375 245.335938 144.484375 C 246.386719 144.484375 247.417969 144.082031 248.199219 143.332031 C 249.292969 142.28125 249.726562 140.71875 249.328125 139.253906 C 248.71875 137.019531 248.285156 135.445312 247.824219 133.769531 C 247.492188 132.582031 247.152344 131.347656 246.726562 129.78125 C 246.664062 129.566406 246.59375 129.359375 246.5 129.15625 C 244.984375 125.839844 243.800781 123.257812 242.667969 120.789062 C 241.214844 117.628906 239.851562 114.640625 237.976562 110.53125 C 237.371094 109.199219 236.105469 108.285156 234.648438 108.132812 C 234.503906 108.113281 234.359375 108.105469 234.210938 108.105469 C 232.914062 108.105469 231.679688 108.722656 230.890625 109.777344 C 230.820312 109.878906 230.746094 109.972656 230.671875 110.070312 C 230.699219 109.890625 230.722656 109.699219 230.746094 109.5 C 230.976562 107.625 229.910156 105.832031 228.152344 105.140625 C 226.714844 104.574219 219.347656 101.757812 215.464844 101.757812 L 215.328125 101.761719 C 212.996094 101.792969 211.632812 102.796875 210.902344 103.628906 C 209.269531 105.484375 209.527344 107.753906 209.664062 108.972656 C 209.6875 109.128906 209.710938 109.339844 209.722656 109.503906 C 208.453125 111.726562 208.757812 114.558594 209.5 117.035156 C 208.609375 117.503906 207.703125 117.980469 206.515625 118.621094 C 206.152344 118.8125 205.824219 119.054688 205.542969 119.339844 C 205.386719 119.195312 205.222656 119.070312 205.042969 118.953125 C 201.308594 116.5 199.113281 115.078125 196.167969 113.167969 C 196.234375 111.890625 196.304688 110.804688 196.386719 109.523438 C 205.007812 103.9375 209.929688 100.800781 219.140625 95.15625 C 220.9375 94.054688 221.621094 91.773438 220.726562 89.863281 C 220.242188 88.839844 219.9375 88.175781 219.570312 87.367188 L 219.035156 86.195312 C 218.53125 85.09375 217.570312 84.269531 216.40625 83.9375 C 216.035156 83.832031 215.65625 83.78125 215.277344 83.78125 C 214.46875 83.78125 213.667969 84.015625 212.984375 84.472656 C 212.734375 84.636719 212.5 84.796875 212.277344 84.945312 C 211.875 82.695312 211.507812 80.546875 211.015625 77.601562 C 210.722656 75.867188 209.367188 74.511719 207.632812 74.214844 C 207.398438 74.175781 207.164062 74.152344 206.933594 74.152344 C 205.449219 74.152344 204.054688 74.953125 203.316406 76.285156 C 201.976562 78.703125 199.933594 82.429688 198.695312 84.917969 C 198.539062 84.921875 198.367188 84.921875 198.179688 84.921875 C 194.621094 84.921875 188.96875 84.320312 186.808594 84.074219 C 184.453125 82.636719 183.011719 81.785156 180.765625 80.457031 L 180.382812 80.234375 L 180.257812 80.160156 C 176.742188 78.238281 174.996094 77.285156 171.726562 75.628906 C 171.140625 75.335938 170.5 75.183594 169.859375 75.183594 C 169.414062 75.183594 168.96875 75.257812 168.542969 75.398438 C 164.75 76.671875 162.316406 77.523438 159.347656 78.636719 L 159.289062 78.503906 C 158.777344 77.355469 157.777344 76.503906 156.5625 76.179688 C 151.148438 74.757812 148.601562 74.257812 144.152344 73.773438 C 144.003906 73.757812 143.851562 73.75 143.699219 73.75 M 143.699219 77.886719 C 147.960938 78.351562 150.335938 78.820312 155.507812 80.183594 C 156.144531 81.617188 156.46875 82.359375 157.183594 83.890625 C 162.203125 81.949219 164.734375 81.039062 169.859375 79.324219 C 173.085938 80.957031 174.746094 81.867188 178.277344 83.792969 C 181.039062 85.425781 182.472656 86.273438 185.425781 88.082031 C 185.425781 88.082031 193.425781 89.058594 198.179688 89.058594 C 200.066406 89.058594 201.441406 88.90625 201.59375 88.472656 C 202.125 86.972656 206.933594 78.292969 206.933594 78.292969 C 207.832031 83.613281 208.296875 86.3125 209.355469 91.847656 C 211.722656 90.25 212.914062 89.492188 215.277344 87.917969 C 215.949219 89.394531 216.28125 90.140625 216.980469 91.628906 C 207.335938 97.535156 202.363281 100.714844 192.40625 107.171875 C 192.175781 110.429688 192.078125 112.039062 191.90625 115.339844 C 196.140625 118.082031 198.324219 119.492188 202.773438 122.414062 C 202.84375 125.9375 202.894531 127.707031 203 131.292969 C 205.320312 130.425781 206.472656 129.992188 208.800781 129.15625 C 208.664062 126.359375 208.578125 125.007812 208.460938 122.269531 C 210.964844 120.929688 212.214844 120.292969 214.722656 118.960938 C 214.722656 118.960938 211.957031 113.414062 213.410156 111.414062 C 214.859375 109.421875 212.121094 105.949219 215.390625 105.894531 L 215.464844 105.894531 C 218.761719 105.894531 226.636719 108.992188 226.636719 108.992188 C 226.292969 111.816406 226.113281 113.238281 225.738281 116.101562 C 227.839844 116.289062 228.878906 116.382812 230.984375 116.558594 C 232.285156 114.828125 232.945312 113.957031 234.210938 112.246094 C 237.546875 119.578125 239.289062 123.324219 242.734375 130.878906 C 243.769531 134.632812 244.292969 136.523438 245.335938 140.347656 C 242.621094 139.472656 241.273438 139.046875 238.523438 138.183594 C 238.675781 135.863281 238.75 134.71875 238.914062 132.449219 C 233.125 132.003906 230.191406 131.796875 224.339844 131.480469 C 223.753906 133.125 223.457031 133.933594 222.875 135.582031 C 224.828125 136.09375 225.820312 136.328125 227.785156 136.832031 C 228.964844 139.140625 229.566406 140.304688 230.765625 142.640625 C 224.859375 143.78125 221.851562 144.371094 215.933594 145.578125 C 215.933594 145.578125 206.050781 152.328125 205.527344 155.707031 C 205.019531 159.082031 205 162.484375 205 162.484375 C 201.074219 164.007812 199.113281 164.792969 195.214844 166.328125 C 195.199219 170.394531 195.199219 172.46875 195.214844 176.535156 C 194.242188 176.363281 193.777344 176.261719 192.808594 176.09375 C 191.820312 173.390625 191.332031 172.039062 190.367188 169.300781 C 190.367188 169.300781 186.65625 165.742188 184.789062 165.742188 C 184.535156 165.742188 184.3125 165.808594 184.136719 165.960938 C 182.699219 167.226562 175.558594 166.414062 173.207031 168.527344 C 170.863281 170.589844 159.890625 186.691406 171.613281 188.644531 C 173.285156 188.917969 174.695312 189.035156 175.890625 189.035156 C 181.386719 189.035156 182.257812 186.546875 182.34375 185.363281 C 182.410156 188.449219 182.441406 189.957031 182.535156 193.015625 C 184.804688 193.238281 185.945312 193.335938 188.25 193.582031 C 188.171875 195.738281 188.144531 196.847656 188.097656 199.007812 C 191.914062 201.859375 193.839844 203.269531 197.664062 206.070312 C 201.957031 203.246094 204.15625 201.808594 208.609375 198.871094 C 208.832031 200.691406 208.953125 201.613281 209.164062 203.40625 C 211.269531 202.472656 212.339844 201.992188 214.496094 200.996094 C 223.347656 204.890625 227.863281 206.769531 236.476562 210.390625 C 239.496094 213.277344 241.003906 214.714844 243.945312 217.515625 C 254.238281 220.746094 259.226562 222.21875 268.78125 224.796875 C 265.964844 228.851562 264.535156 230.859375 261.707031 234.878906 C 260.734375 239.925781 260.246094 242.433594 259.210938 247.34375 C 259.210938 247.34375 257.566406 246.707031 255.976562 246.707031 C 254.679688 246.707031 253.417969 247.128906 253.09375 248.648438 C 252.390625 251.984375 237.492188 267.707031 234.8125 267.707031 L 234.753906 267.703125 L 234.648438 267.699219 C 232.125 267.699219 227.429688 275.402344 227.429688 275.402344 C 225.097656 284.972656 224.015625 289.613281 222.148438 298.292969 C 219.023438 295.851562 217.410156 294.5625 214.121094 291.882812 C 213.289062 274.804688 212.929688 265.40625 212.390625 245.613281 C 187.1875 233.074219 193.015625 214.554688 196.359375 208.269531 C 193.984375 206.96875 182.210938 200.347656 181.242188 197.046875 C 180.179688 193.335938 160.621094 190.683594 160.621094 190.683594 C 153.667969 181.714844 150.277344 177.195312 143.90625 168.613281 L 144.039062 184.347656 C 144.039062 184.347656 134.835938 159.882812 133.179688 158.433594 C 131.527344 156.996094 136.886719 138.28125 136.886719 138.28125 C 136.886719 138.28125 137.878906 138.5625 138.8125 138.5625 C 139.46875 138.5625 140.085938 138.425781 140.3125 137.949219 C 140.851562 136.816406 131.308594 106.929688 131.308594 106.929688 C 117.582031 114.015625 110.855469 117.636719 98.105469 124.515625 C 103.382812 120.058594 106.082031 117.734375 111.515625 113.035156 C 110.632812 111.328125 110.265625 110.503906 109.628906 109.015625 C 114.859375 105.308594 117.507812 103.457031 122.816406 99.660156 C 123.324219 98.8125 123.59375 98.371094 124.089844 97.535156 C 121.679688 98.679688 120.484375 99.269531 118.125 100.457031 C 119.492188 98.582031 120.1875 97.625 121.585938 95.738281 C 123.546875 95.167969 124.578125 94.894531 126.644531 94.390625 C 128.09375 91.601562 128.828125 90.226562 130.347656 87.503906 C 131.816406 86.558594 132.5625 86.078125 134.027344 85.144531 C 137.894531 82.234375 139.84375 80.785156 143.699219 77.886719 " fill-opacity="1" fill-rule="nonzero"/><path fill="#61a97b" d="M 129.277344 89.433594 C 129.597656 88.851562 129.941406 88.226562 130.347656 87.503906 C 130.492188 87.410156 130.625 87.324219 130.753906 87.242188 C 130.804688 87.207031 130.851562 87.175781 130.898438 87.148438 C 130.558594 87.792969 130.195312 88.488281 129.765625 89.316406 C 129.59375 89.359375 129.4375 89.398438 129.277344 89.433594 " fill-opacity="1" fill-rule="nonzero"/><path fill="#160b0a" d="M 130.753906 87.242188 C 130.804688 87.207031 130.851562 87.175781 130.898438 87.148438 C 130.851562 87.175781 130.804688 87.207031 130.753906 87.242188 " fill-opacity="1" fill-rule="nonzero"/><path fill="#61a97b" d="M 222.148438 298.292969 C 219.023438 295.851562 217.410156 294.5625 214.121094 291.882812 C 213.289062 274.804688 212.929688 265.40625 212.390625 245.613281 C 197.230469 238.070312 193.296875 228.363281 193.296875 220.457031 C 193.300781 215.21875 195.027344 210.769531 196.359375 208.269531 C 193.984375 206.96875 182.210938 200.347656 181.242188 197.046875 C 180.179688 193.335938 160.621094 190.683594 160.621094 190.683594 C 154.929688 183.339844 148.414062 174.667969 143.90625 168.613281 L 144.039062 159.738281 C 150.410156 168.320312 156.792969 176.644531 163.742188 185.609375 C 163.742188 185.609375 165.113281 185.792969 167.136719 186.132812 C 167.933594 187.363281 169.351562 188.265625 171.613281 188.644531 C 173.285156 188.917969 174.695312 189.035156 175.890625 189.035156 C 177.039062 189.035156 177.988281 188.925781 178.769531 188.742188 C 180.203125 189.191406 181.480469 189.6875 182.453125 190.207031 C 182.464844 190.601562 182.476562 191.007812 182.488281 191.441406 C 182.5 191.925781 182.519531 192.441406 182.535156 193.015625 C 183.507812 193.109375 184.269531 193.179688 185.003906 193.253906 C 185.050781 193.253906 185.089844 193.257812 185.132812 193.261719 C 185.824219 194.113281 186.902344 195.066406 188.167969 196.042969 C 188.164062 196.238281 188.160156 196.433594 188.152344 196.628906 C 188.136719 197.339844 188.117188 198.074219 188.097656 199.007812 C 191.914062 201.859375 193.839844 203.269531 197.664062 206.070312 C 197.667969 206.066406 197.675781 206.058594 197.683594 206.054688 C 197.898438 205.914062 198.097656 205.785156 198.296875 205.652344 C 198.324219 205.636719 198.347656 205.621094 198.371094 205.605469 C 195.25 213.363281 192.996094 229.332031 215.515625 240.535156 C 216.054688 260.332031 216.410156 269.726562 217.242188 286.808594 C 219.871094 288.949219 221.441406 290.207031 223.550781 291.871094 C 223.121094 293.824219 222.667969 295.894531 222.15625 298.265625 C 222.15625 298.265625 222.15625 298.265625 222.15625 298.269531 C 222.152344 298.277344 222.152344 298.285156 222.148438 298.292969 " fill-opacity="1" fill-rule="nonzero"/><path fill="#160b0a" d="M 222.148438 298.292969 C 219.023438 295.851562 217.410156 294.5625 214.121094 291.882812 C 213.289062 274.804688 212.929688 265.40625 212.390625 245.613281 C 197.230469 238.070312 193.296875 228.363281 193.296875 220.457031 C 193.296875 228.363281 197.230469 238.070312 212.390625 245.613281 C 212.929688 265.40625 213.289062 274.804688 214.121094 291.882812 C 217.410156 294.5625 219.023438 295.851562 222.148438 298.292969 C 222.152344 298.285156 222.152344 298.277344 222.15625 298.269531 C 222.152344 298.277344 222.152344 298.285156 222.148438 298.292969 M 222.15625 298.265625 C 222.667969 295.894531 223.121094 293.824219 223.550781 291.871094 C 223.121094 293.824219 222.667969 295.894531 222.15625 298.265625 M 196.359375 208.269531 C 193.984375 206.96875 182.210938 200.347656 181.242188 197.046875 C 180.179688 193.335938 160.621094 190.683594 160.621094 190.683594 C 160.621094 190.683594 180.179688 193.335938 181.242188 197.046875 C 182.210938 200.347656 193.984375 206.96875 196.359375 208.269531 M 197.664062 206.070312 C 197.667969 206.066406 197.675781 206.058594 197.683594 206.054688 C 197.675781 206.058594 197.667969 206.066406 197.664062 206.070312 M 198.296875 205.652344 C 198.324219 205.636719 198.347656 205.621094 198.371094 205.601562 C 198.347656 205.621094 198.324219 205.636719 198.296875 205.652344 M 188.152344 196.628906 C 188.160156 196.433594 188.164062 196.238281 188.167969 196.042969 C 188.164062 196.238281 188.160156 196.433594 188.152344 196.628906 M 185.132812 193.261719 C 185.089844 193.257812 185.050781 193.253906 185.003906 193.253906 C 185.050781 193.253906 185.089844 193.257812 185.132812 193.261719 M 182.488281 191.441406 C 182.476562 191.007812 182.464844 190.601562 182.453125 190.207031 C 182.464844 190.601562 182.476562 191.007812 182.488281 191.441406 M 175.890625 189.035156 C 174.695312 189.035156 173.285156 188.917969 171.613281 188.644531 C 173.273438 188.914062 174.667969 189.03125 175.855469 189.03125 C 177.011719 189.03125 177.960938 188.921875 178.75 188.734375 C 178.757812 188.738281 178.761719 188.738281 178.769531 188.742188 C 177.988281 188.925781 177.039062 189.035156 175.890625 189.035156 M 171.613281 188.644531 C 169.351562 188.265625 167.933594 187.363281 167.136719 186.132812 C 167.140625 186.132812 167.140625 186.132812 167.144531 186.136719 C 167.945312 187.363281 169.355469 188.265625 171.613281 188.644531 " fill-opacity="1" fill-rule="nonzero"/><path fill="#61a97b" d="M 144.039062 184.347656 C 144.039062 184.347656 134.835938 159.882812 133.179688 158.433594 C 132.957031 158.242188 132.863281 157.746094 132.863281 157.023438 C 132.859375 152.339844 136.886719 138.28125 136.886719 138.28125 C 136.886719 138.28125 137.714844 138.515625 138.566406 138.558594 C 137.113281 144.207031 135.230469 152.425781 136.300781 153.359375 C 137.308594 154.238281 141.101562 163.617188 143.921875 170.839844 L 144.039062 184.347656 " fill-opacity="1" fill-rule="nonzero"/><path fill="#160b0a" d="M 144.039062 184.347656 C 144.039062 184.347656 134.835938 159.882812 133.179688 158.433594 C 132.957031 158.242188 132.863281 157.746094 132.863281 157.023438 C 132.863281 157.746094 132.957031 158.242188 133.179688 158.433594 C 134.835938 159.882812 144.039062 184.347656 144.039062 184.347656 M 144.039062 184.347656 L 143.921875 170.839844 L 144.039062 184.347656 M 138.566406 138.558594 C 137.714844 138.515625 136.886719 138.28125 136.886719 138.28125 C 136.886719 138.28125 137.714844 138.515625 138.566406 138.554688 L 138.566406 138.558594 " fill-opacity="1" fill-rule="nonzero"/><path fill="#61a97b" d="M 118.605469 99.800781 C 118.738281 99.617188 118.867188 99.441406 118.988281 99.273438 C 119.851562 98.085938 120.511719 97.183594 121.585938 95.738281 C 123.054688 95.3125 124.003906 95.050781 125.253906 94.734375 C 125.476562 94.675781 125.710938 94.621094 125.957031 94.558594 L 125.945312 94.585938 C 122.96875 96.710938 120.824219 98.226562 118.605469 99.800781 " fill-opacity="1" fill-rule="nonzero"/><path fill="#160b0a" d="M 118.988281 99.273438 C 119.851562 98.085938 120.511719 97.183594 121.585938 95.738281 C 120.511719 97.183594 119.851562 98.085938 118.988281 99.273438 M 125.253906 94.734375 C 125.476562 94.675781 125.710938 94.621094 125.957031 94.558594 C 125.710938 94.621094 125.476562 94.675781 125.253906 94.734375 " fill-opacity="1" fill-rule="nonzero"/><path fill="#61a97b" d="M 110.683594 111.375 C 110.484375 110.957031 110.308594 110.5625 110.121094 110.152344 C 109.96875 109.804688 109.8125 109.4375 109.628906 109.015625 C 110.96875 108.066406 112.140625 107.238281 113.226562 106.46875 C 113.394531 106.347656 113.558594 106.234375 113.722656 106.117188 C 113.976562 106.652344 114.257812 107.222656 114.636719 107.957031 C 113.152344 109.246094 111.871094 110.355469 110.683594 111.375 " fill-opacity="1" fill-rule="nonzero"/><path fill="#160b0a" d="M 110.121094 110.152344 C 109.96875 109.804688 109.8125 109.4375 109.628906 109.015625 C 109.8125 109.4375 109.96875 109.804688 110.121094 110.152344 M 109.628906 109.015625 C 110.96875 108.066406 112.140625 107.238281 113.226562 106.46875 C 112.140625 107.238281 110.96875 108.066406 109.628906 109.015625 " fill-opacity="1" fill-rule="nonzero"/><path fill="#61a97b" d="M 143.019531 137.9375 C 142.085938 137.9375 141.089844 137.652344 141.089844 137.652344 C 141.089844 137.652344 140.085938 134.40625 139.730469 134.40625 C 139.695312 134.40625 139.664062 134.441406 139.640625 134.519531 C 139.625 134.445312 139.605469 134.375 139.585938 134.300781 C 138.691406 130.835938 138.769531 130.292969 131.308594 106.929688 C 117.582031 114.015625 110.855469 117.636719 98.105469 124.515625 C 102.453125 120.847656 105.054688 118.625 108.863281 115.328125 C 117.25 110.820312 123.710938 107.386719 134.429688 101.855469 C 134.429688 101.855469 145.0625 136.191406 144.511719 137.320312 C 144.289062 137.796875 143.671875 137.9375 143.019531 137.9375 " fill-opacity="1" fill-rule="nonzero"/><path fill="#160b0a" d="M 139.640625 134.519531 C 139.621094 134.441406 139.605469 134.375 139.585938 134.300781 C 139.605469 134.375 139.625 134.445312 139.640625 134.519531 M 98.105469 124.515625 C 110.855469 117.636719 117.582031 114.015625 131.308594 106.929688 C 117.582031 114.015625 110.855469 117.636719 98.105469 124.515625 " fill-opacity="1" fill-rule="nonzero"/><path fill="#b8e7e0" d="M 288.414062 141.308594 C 287.585938 141.308594 286.808594 140.8125 286.488281 139.992188 C 270.429688 98.753906 230.351562 69.519531 183.4375 69.523438 C 182.296875 69.523438 181.371094 68.597656 181.371094 67.453125 C 181.371094 66.308594 182.296875 65.382812 183.4375 65.382812 C 232.105469 65.386719 273.683594 95.707031 290.339844 138.492188 C 290.753906 139.554688 290.226562 140.753906 289.167969 141.167969 C 288.917969 141.265625 288.664062 141.308594 288.414062 141.308594 " fill-opacity="1" fill-rule="nonzero"/><path fill="#bbe6c4" d="M 183.726562 96.628906 C 183.1875 96.628906 182.675781 96.421875 182.289062 96.042969 L 175.292969 89.21875 L 164.175781 89.21875 C 163.03125 89.21875 162.105469 88.289062 162.105469 87.148438 C 162.105469 86.003906 163.03125 85.078125 164.175781 85.078125 L 176.132812 85.078125 C 176.667969 85.078125 177.195312 85.289062 177.574219 85.664062 L 184.5 92.421875 L 203.144531 90.96875 C 203.199219 90.964844 203.253906 90.964844 203.308594 90.964844 C 204.378906 90.964844 205.28125 91.785156 205.367188 92.871094 C 205.457031 94.011719 204.609375 95.003906 203.464844 95.09375 L 183.890625 96.625 C 183.835938 96.628906 183.78125 96.628906 183.726562 96.628906 " fill-opacity="1" fill-rule="nonzero"/><path fill="#bbe6c4" d="M 261.253906 231.085938 C 261.003906 231.085938 260.753906 231.042969 260.507812 230.945312 L 239.878906 222.933594 C 239.523438 222.792969 239.214844 222.5625 238.980469 222.261719 L 234.644531 216.574219 L 216.71875 209.894531 C 215.644531 209.492188 215.101562 208.300781 215.5 207.230469 C 215.808594 206.398438 216.597656 205.882812 217.4375 205.882812 C 217.675781 205.882812 217.921875 205.925781 218.160156 206.011719 L 236.648438 212.902344 C 237.015625 213.039062 237.332031 213.273438 237.574219 213.585938 L 241.917969 219.285156 L 262.003906 227.085938 C 263.070312 227.5 263.597656 228.699219 263.179688 229.765625 C 262.867188 230.582031 262.082031 231.085938 261.253906 231.085938 " fill-opacity="1" fill-rule="nonzero"/><path fill="#ffffff" d="M 139.839844 273.488281 C 138.742188 273.488281 133.988281 274.050781 132.773438 274.433594 C 129.429688 267.875 122.632812 263.378906 114.761719 263.378906 C 110.640625 263.378906 106.808594 264.609375 103.609375 266.734375 C 99.105469 261.890625 92.683594 258.871094 85.550781 258.871094 C 71.902344 258.871094 60.828125 269.9375 60.828125 283.605469 C 60.828125 297.277344 71.902344 308.335938 85.550781 308.335938 C 85.550781 308.335938 139.625 308.335938 139.839844 308.335938 C 149.472656 308.335938 157.265625 300.539062 157.265625 290.910156 C 157.265625 281.28125 149.472656 273.488281 139.839844 273.488281 " fill-opacity="1" fill-rule="nonzero"/><g clip-path="url(#id2)"><path fill="#180d0c" d="M 139.839844 273.488281 L 139.839844 271.417969 C 139.40625 271.417969 138.902344 271.457031 138.246094 271.519531 C 137.277344 271.613281 136.066406 271.757812 134.957031 271.917969 C 134.402344 272 133.871094 272.085938 133.410156 272.167969 C 132.933594 272.257812 132.542969 272.339844 132.15625 272.457031 L 132.773438 274.433594 L 134.617188 273.492188 C 130.9375 266.269531 123.429688 261.308594 114.761719 261.308594 C 110.226562 261.308594 105.988281 262.667969 102.46875 265.007812 L 103.609375 266.734375 L 105.125 265.324219 C 100.25 260.082031 93.273438 256.804688 85.550781 256.804688 C 70.761719 256.804688 58.757812 268.789062 58.757812 283.605469 C 58.757812 298.417969 70.761719 310.40625 85.550781 310.40625 C 85.554688 310.40625 86.394531 310.40625 87.878906 310.40625 C 98.226562 310.40625 139.648438 310.40625 139.839844 310.40625 C 150.613281 310.40625 159.332031 301.683594 159.332031 290.910156 C 159.332031 280.140625 150.613281 271.417969 139.839844 271.417969 L 139.839844 275.554688 C 144.09375 275.554688 147.917969 277.269531 150.703125 280.054688 C 153.484375 282.835938 155.195312 286.664062 155.195312 290.910156 C 155.195312 295.160156 153.484375 298.988281 150.703125 301.773438 C 147.917969 304.554688 144.09375 306.269531 139.839844 306.269531 C 139.730469 306.269531 126.15625 306.269531 112.613281 306.269531 C 105.839844 306.269531 99.074219 306.269531 94.003906 306.269531 C 91.46875 306.269531 89.355469 306.269531 87.878906 306.269531 C 86.394531 306.269531 85.554688 306.269531 85.550781 306.269531 C 79.289062 306.269531 73.640625 303.738281 69.53125 299.636719 C 65.429688 295.527344 62.894531 289.875 62.894531 283.605469 C 62.894531 277.339844 65.429688 271.683594 69.53125 267.578125 C 73.640625 263.472656 79.289062 260.941406 85.550781 260.941406 C 92.089844 260.941406 97.96875 263.707031 102.101562 268.144531 C 102.785156 268.882812 103.914062 269.015625 104.753906 268.457031 C 107.625 266.550781 111.050781 265.449219 114.761719 265.449219 C 121.828125 265.449219 127.921875 269.480469 130.933594 275.375 C 131.394531 276.277344 132.425781 276.707031 133.390625 276.40625 C 133.433594 276.394531 133.59375 276.351562 133.804688 276.308594 C 134.554688 276.148438 135.914062 275.949219 137.148438 275.800781 C 137.769531 275.726562 138.363281 275.664062 138.851562 275.621094 C 139.335938 275.578125 139.738281 275.550781 139.839844 275.554688 L 139.839844 273.488281 " fill-opacity="1" fill-rule="nonzero"/></g><path fill="#ffffff" d="M 318.113281 165.027344 C 317 165.027344 312.25 165.59375 311.035156 165.972656 C 307.691406 159.414062 300.898438 154.90625 293.027344 154.90625 C 288.898438 154.90625 285.070312 156.160156 281.875 158.273438 C 277.371094 153.449219 270.945312 150.425781 263.816406 150.425781 C 250.15625 150.425781 239.085938 161.492188 239.085938 175.160156 C 239.085938 188.816406 250.15625 199.890625 263.816406 199.890625 C 263.816406 199.890625 317.886719 199.890625 318.113281 199.890625 C 327.738281 199.890625 335.527344 192.082031 335.527344 182.46875 C 335.527344 172.828125 327.738281 165.027344 318.113281 165.027344 " fill-opacity="1" fill-rule="nonzero"/><g clip-path="url(#id3)"><path fill="#180d0c" d="M 318.113281 165.027344 L 318.113281 162.957031 C 317.679688 162.957031 317.171875 163 316.511719 163.0625 C 315.542969 163.15625 314.332031 163.296875 313.21875 163.460938 C 312.667969 163.539062 312.136719 163.625 311.667969 163.710938 C 311.195312 163.800781 310.808594 163.878906 310.421875 163.996094 L 311.035156 165.972656 L 312.878906 165.03125 C 309.199219 157.808594 301.703125 152.84375 293.027344 152.839844 C 288.480469 152.839844 284.25 154.226562 280.734375 156.550781 L 281.875 158.273438 L 283.386719 156.859375 C 278.511719 151.632812 271.535156 148.355469 263.816406 148.355469 C 249.011719 148.355469 237.023438 160.347656 237.019531 175.160156 C 237.023438 189.960938 249.011719 201.960938 263.816406 201.960938 C 263.816406 201.960938 317.886719 201.960938 318.113281 201.960938 C 328.878906 201.960938 337.59375 193.226562 337.597656 182.46875 C 337.597656 171.683594 328.875 162.957031 318.113281 162.957031 L 318.113281 167.097656 C 322.359375 167.097656 326.183594 168.8125 328.964844 171.59375 C 331.742188 174.378906 333.457031 178.210938 333.460938 182.46875 C 333.457031 186.710938 331.746094 190.535156 328.964844 193.324219 C 326.183594 196.109375 322.359375 197.820312 318.113281 197.820312 C 317.886719 197.820312 263.816406 197.820312 263.816406 197.820312 C 257.546875 197.820312 251.894531 195.289062 247.792969 191.183594 C 243.6875 187.074219 241.160156 181.425781 241.15625 175.160156 C 241.160156 168.886719 243.6875 163.238281 247.792969 159.132812 C 251.894531 155.03125 257.546875 152.5 263.816406 152.496094 C 270.355469 152.5 276.230469 155.257812 280.363281 159.683594 C 281.050781 160.425781 282.171875 160.558594 283.015625 160 C 285.894531 158.101562 289.324219 156.980469 293.027344 156.976562 C 300.09375 156.976562 306.183594 161.019531 309.191406 166.914062 C 309.652344 167.816406 310.6875 168.25 311.652344 167.949219 C 311.695312 167.933594 311.859375 167.894531 312.066406 167.847656 C 312.816406 167.691406 314.171875 167.492188 315.414062 167.34375 C 316.03125 167.269531 316.632812 167.207031 317.121094 167.160156 C 317.601562 167.117188 318.007812 167.097656 318.113281 167.097656 L 318.113281 165.027344 " fill-opacity="1" fill-rule="nonzero"/></g><path fill="#ffffff" d="M 50.011719 100.628906 C 50.011719 100.628906 90.777344 100.628906 90.945312 100.628906 C 98.203125 100.628906 104.078125 94.746094 104.078125 87.492188 C 104.078125 80.234375 98.203125 74.335938 90.945312 74.335938 C 90.117188 74.335938 86.539062 74.78125 85.617188 75.0625 C 83.09375 70.125 77.976562 66.722656 72.039062 66.722656 C 68.929688 66.722656 66.046875 67.671875 63.625 69.269531 C 60.234375 65.628906 55.394531 63.335938 50.011719 63.335938 C 39.726562 63.335938 31.375 71.683594 31.375 81.972656 C 31.375 92.28125 39.726562 100.628906 50.011719 100.628906 " fill-opacity="1" fill-rule="nonzero"/><g clip-path="url(#id4)"><path fill="#180d0c" d="M 50.011719 100.628906 L 50.011719 102.699219 C 50.011719 102.699219 90.777344 102.699219 90.945312 102.699219 C 99.34375 102.699219 106.148438 95.894531 106.148438 87.492188 C 106.148438 79.089844 99.34375 72.269531 90.945312 72.265625 C 90.570312 72.269531 90.191406 72.304688 89.6875 72.351562 C 88.949219 72.425781 88.03125 72.539062 87.1875 72.664062 C 86.765625 72.722656 86.363281 72.789062 86.003906 72.855469 C 85.640625 72.925781 85.335938 72.984375 85.015625 73.082031 L 85.617188 75.0625 L 87.457031 74.121094 C 84.601562 68.519531 78.78125 64.65625 72.039062 64.652344 C 68.507812 64.652344 65.222656 65.730469 62.488281 67.539062 L 63.625 69.269531 L 65.136719 67.851562 C 61.375 63.820312 55.988281 61.265625 50.011719 61.265625 C 38.582031 61.265625 29.3125 70.542969 29.308594 81.972656 C 29.3125 93.421875 38.582031 102.695312 50.011719 102.699219 L 50.011719 98.5625 C 45.433594 98.5625 41.304688 96.710938 38.300781 93.703125 C 35.300781 90.695312 33.449219 86.5625 33.445312 81.972656 C 33.449219 77.394531 35.300781 73.265625 38.300781 70.257812 C 41.304688 67.253906 45.433594 65.402344 50.011719 65.402344 C 54.796875 65.402344 59.089844 67.441406 62.117188 70.679688 C 62.804688 71.417969 63.921875 71.550781 64.765625 70.992188 C 66.871094 69.609375 69.351562 68.796875 72.039062 68.792969 C 77.167969 68.792969 81.585938 71.730469 83.773438 76.003906 C 84.230469 76.894531 85.261719 77.332031 86.21875 77.039062 C 86.230469 77.035156 86.347656 77.007812 86.496094 76.976562 C 87.042969 76.863281 88.0625 76.707031 88.984375 76.59375 C 89.449219 76.539062 89.894531 76.488281 90.253906 76.453125 C 90.605469 76.421875 90.90625 76.40625 90.945312 76.40625 C 94.003906 76.410156 96.761719 77.644531 98.773438 79.65625 C 100.773438 81.667969 102.011719 84.429688 102.011719 87.492188 C 102.011719 90.554688 100.773438 93.308594 98.773438 95.320312 C 96.765625 97.324219 94.007812 98.5625 90.945312 98.5625 C 90.859375 98.5625 80.628906 98.5625 70.414062 98.5625 C 65.304688 98.5625 60.203125 98.5625 56.382812 98.5625 C 52.558594 98.5625 50.019531 98.5625 50.011719 98.5625 L 50.011719 100.628906 " fill-opacity="1" fill-rule="nonzero"/></g></svg>